<?xml version="1.0" standalone="no"?><!DOCTYPE svg PUBLIC "-//W3C//DTD SVG 1.1//EN" "http://www.w3.org/Graphics/SVG/1.1/DTD/svg11.dtd"><svg t="1586513687143" class="icon" viewBox="0 0 1024 1024" version="1.1" xmlns="http://www.w3.org/2000/svg" p-id="5926" xmlns:xlink="http://www.w3.org/1999/xlink" width="600" height="600"><defs><style type="text/css"></style></defs><path d="M512 1024c-282.304 0-512-229.696-512-512s229.696-512 512-512 512 229.696 512 512c0 42.752-5.312 85.248-15.744 126.4-5.12 20.352-25.856 32.64-46.144 27.52-20.352-5.184-32.704-25.856-27.52-46.208C943.488 584.704 948.032 548.416 948.032 512c0-240.448-195.584-436.032-436.032-436.032S75.968 271.552 75.968 512 271.552 948.032 512 948.032c64.448 0 126.528-13.696 184.384-40.768 19.072-8.896 41.6-0.704 50.496 18.304 8.96 19.008 0.704 41.6-18.304 50.496C660.48 1007.872 587.648 1024 512 1024L512 1024z" p-id="5927"></path><path d="M507.712 788.032c-20.992 0-38.016-17.024-38.016-38.016L469.696 416.832c0-20.992 17.024-38.016 38.016-38.016s38.016 17.024 38.016 38.016l0 333.248C545.664 771.072 528.704 788.032 507.712 788.032L507.712 788.032z" p-id="5928"></path><path d="M500.032 439.808c-9.664 0-19.456-3.712-26.816-11.136L375.616 331.072c-14.848-14.848-14.848-38.848 0-53.696s38.848-14.848 53.696 0l97.6 97.6c14.784 14.848 14.784 38.848 0 53.76C519.488 436.096 509.824 439.808 500.032 439.808L500.032 439.808z" p-id="5929"></path><path d="M529.344 439.808c-9.728 0-19.456-3.712-26.88-11.136-14.848-14.848-14.848-38.912 0-53.76l97.6-97.6c14.848-14.848 38.848-14.848 53.76 0 14.784 14.848 14.784 38.912 0 53.696L556.16 428.672C548.736 436.096 539.008 439.808 529.344 439.808L529.344 439.808z" p-id="5930"></path><path d="M645.12 587.264 370.176 587.264c-20.992 0-37.952-17.024-37.952-38.016s17.024-38.016 37.952-38.016l274.944 0c20.992 0 38.016 17.024 38.016 38.016S666.112 587.264 645.12 587.264L645.12 587.264z" p-id="5931"></path><path d="M645.12 460.352 370.176 460.352c-20.992 0-37.952-17.024-37.952-37.952s17.024-38.016 37.952-38.016l274.944 0c20.992 0 38.016 17.024 38.016 38.016S666.112 460.352 645.12 460.352L645.12 460.352z" p-id="5932"></path></svg>