<?xml version="1.0" standalone="no"?><!DOCTYPE svg PUBLIC "-//W3C//DTD SVG 1.1//EN" "http://www.w3.org/Graphics/SVG/1.1/DTD/svg11.dtd"><svg t="1576202126688" class="icon" viewBox="0 0 1024 1024" version="1.1" xmlns="http://www.w3.org/2000/svg" p-id="5943" xmlns:xlink="http://www.w3.org/1999/xlink" width="200" height="200"><defs><style type="text/css"></style></defs><path d="M184.678628 242.931868m-118.903064 0a118.903064 118.903064 0 1 0 237.806128 0 118.903064 118.903064 0 1 0-237.806128 0Z" p-id="5944" fill="#000000"></path><path d="M481.931682 124.027781c65.666582 0 118.903064 53.234435 118.903064 118.903064S547.599288 361.833909 481.931682 361.833909c-65.663512 0-118.896924-53.234435-118.896924-118.903064S416.26817 124.027781 481.931682 124.027781zM838.640873 64.576761c65.665559 0 118.903064 53.234435 118.903064 118.903064s-53.237505 118.903064-118.903064 118.903063-118.903064-53.234435-118.903063-118.903063S772.975315 64.576761 838.640873 64.576761zM184.678628 421.286975c65.667605 0 118.903064 53.234435 118.903064 118.905111 0 65.665559-53.235458 118.903064-118.903064 118.903063-65.669652 0-118.903064-53.237505-118.903064-118.903063 0-65.670675 53.233412-118.90511 118.903064-118.905111zM481.931682 421.286975c65.666582 0 118.903064 53.234435 118.903064 118.905111 0 65.665559-53.235458 118.903064-118.903064 118.903063-65.663512 0-118.896924-53.237505-118.896924-118.903063-0.001023-65.670675 53.233412-118.90511 118.896924-118.905111zM779.18883 421.286975c65.665559 0 118.903064 53.234435 118.903064 118.905111 0 65.665559-53.237505 118.903064-118.903064 118.903063s-118.903064-53.237505-118.903064-118.903063c0-65.670675 53.237505-118.90511 118.903064-118.905111z" p-id="5945" fill="#000000"></path><path d="M184.678628 837.449233m-118.902041 0a118.90204 118.90204 0 1 0 237.804081 0 118.90204 118.90204 0 1 0-237.804081 0Z" p-id="5946" fill="#000000"></path><path d="M481.931682 718.547193c65.666582 0 118.903064 53.235458 118.903064 118.901017 0 65.667605-53.235458 118.903064-118.903064 118.903064-65.663512 0-118.896924-53.235458-118.896924-118.903064-0.001023-65.665559 53.233412-118.901017 118.896924-118.901017zM779.18883 718.547193c65.665559 0 118.903064 53.235458 118.903064 118.901017 0 65.667605-53.237505 118.903064-118.903064 118.903064s-118.903064-53.235458-118.903064-118.903064c0-65.665559 53.237505-118.901017 118.903064-118.901017z" p-id="5947" fill="#000000"></path></svg>