<?xml version="1.0" standalone="no"?><!DOCTYPE svg PUBLIC "-//W3C//DTD SVG 1.1//EN" "http://www.w3.org/Graphics/SVG/1.1/DTD/svg11.dtd"><svg t="1586513663910" class="icon" viewBox="0 0 1024 1024" version="1.1" xmlns="http://www.w3.org/2000/svg" p-id="5160" xmlns:xlink="http://www.w3.org/1999/xlink" width="600" height="600"><defs><style type="text/css"></style></defs><path d="M996.369207 368.797242a60.72702 60.72702 0 0 0-57.059518-5.373318L589.191123 510.379902a60.129985 60.129985 0 0 0-38.124969 56.291901v396.260866a61.153474 61.153474 0 0 0 83.584944 56.206611l350.715601-147.297141a60.385857 60.385857 0 0 0 38.039679-56.291901V419.374662a60.72702 60.72702 0 0 0-27.037171-50.57742m-564.965988 141.58266L83.587504 363.082761a60.72702 60.72702 0 0 0-83.584944 56.291901v396.175576a60.044694 60.044694 0 0 0 37.698515 56.036029l347.303971 147.29714 0.511745 0.255873a60.897602 60.897602 0 0 0 83.584944-56.291901V566.757094a60.471148 60.471148 0 0 0-37.698516-56.291901m529.058578-284.615263a60.897602 60.897602 0 0 0-37.613224-56.291901L532.558059 4.605701a60.982893 60.982893 0 0 0-46.654045 0L100.816237 169.472738A60.556439 60.556439 0 0 0 100.304493 281.459505l385.940684 165.037619a61.238765 61.238765 0 0 0 46.568755 0l389.94935-164.781747a60.556439 60.556439 0 0 0 37.698515-56.036029" p-id="5161"></path></svg>