<?xml version="1.0" standalone="no"?><!DOCTYPE svg PUBLIC "-//W3C//DTD SVG 1.1//EN" "http://www.w3.org/Graphics/SVG/1.1/DTD/svg11.dtd"><svg t="1576134309337" class="icon" viewBox="0 0 1025 1024" version="1.1" xmlns="http://www.w3.org/2000/svg" p-id="2553" xmlns:xlink="http://www.w3.org/1999/xlink" width="200.1953125" height="200"><defs><style type="text/css"></style></defs><path d="M977.148093 192.043158H552.594116a47.99751 47.99751 0 1 1 0-95.99502H977.148093a47.99751 47.99751 0 1 1 0 95.99502zM145.19125 288.038178c-12.287363 0-24.574725-4.703756-33.950238-14.07927l-95.995021-95.99502A47.99751 47.99751 0 1 1 83.114471 110.095409L145.19125 172.14019 303.231052 14.100389A47.99751 47.99751 0 1 1 371.099531 81.968868l-191.99004 191.99004c-9.343515 9.375514-21.630878 14.07927-33.918241 14.07927zM977.148093 560.024069H552.594116a47.99751 47.99751 0 1 1 0-95.995021H977.148093a47.99751 47.99751 0 1 1 0 95.995021zM145.19125 656.019089c-12.735339 0-24.926707-5.055738-33.950238-14.047271l-95.995021-95.995021a47.99751 47.99751 0 0 1 67.86848-67.900477l62.076779 62.044781 158.039802-158.039801a47.99751 47.99751 0 1 1 67.868479 67.868479l-191.99004 191.99004c-8.991534 9.023532-21.182901 14.07927-33.918241 14.07927zM977.148093 928.00498H552.594116a47.99751 47.99751 0 1 1 0-95.995021H977.148093a47.99751 47.99751 0 0 1 0 95.995021zM145.19125 1024c-12.287363 0-24.574725-4.671758-33.950238-14.047271l-95.995021-95.995021A47.99751 47.99751 0 1 1 83.114471 846.089229l62.076779 62.044782 158.039802-158.039802a47.99751 47.99751 0 1 1 67.868479 67.868479l-191.99004 191.990041A47.709525 47.709525 0 0 1 145.19125 1024z" p-id="2554" fill="#889aa4"></path></svg>