<?xml version="1.0" standalone="no"?><!DOCTYPE svg PUBLIC "-//W3C//DTD SVG 1.1//EN" "http://www.w3.org/Graphics/SVG/1.1/DTD/svg11.dtd"><svg t="1586513709015" class="icon" viewBox="0 0 1024 1024" version="1.1" xmlns="http://www.w3.org/2000/svg" p-id="6685" xmlns:xlink="http://www.w3.org/1999/xlink" width="600" height="600"><defs><style type="text/css"></style></defs><path d="M381.273 452.38c125.872 0 229.23-100.802 229.23-224.63 0-123.823-102.85-224.623-229.23-224.623-126.384 0-229.233 99.776-229.233 223.604 0 123.822 102.85 225.648 229.233 225.648z m168.852 64.981c-44.004-24.048-94.66-37.866-148.387-37.866H313.22c-170.903 0-310.59 139.691-310.59 310.588V910.33h498.883c-33.767-48.1-54.238-106.432-54.238-169.878 0.515-89.541 40.426-169.364 102.85-223.09z m0 0" p-id="6686"></path><path d="M995.283 699.517h-25.584c-11.77 0-24.047-9.208-27.121-19.954l-14.328-35.305c-5.626-10.237-3.07-25.07 5.118-33.26l17.909-17.908c8.188-8.189 8.188-21.492 0-29.68l-29.678-29.678c-8.184-8.183-21.49-8.183-29.674 0l-17.914 17.909c-8.183 8.188-23.023 10.232-33.255 5.117l-35.306-14.326c-11.257-3.581-19.957-15.863-19.957-27.122v-25.073c0-11.764-9.722-20.976-20.978-20.976H722.56c-11.77 0-20.983 9.725-20.983 20.976v25.073c0 11.77-9.208 24.052-19.954 27.122l-35.305 14.326c-10.232 5.627-25.072 3.071-33.26-5.117l-17.91-17.909c-8.187-8.183-21.49-8.183-29.677 0l-29.674 29.679c-8.189 8.187-8.189 21.49 0 29.679l17.909 17.908c8.182 8.188 10.232 23.023 5.113 33.26l-14.326 35.305c-3.583 11.259-15.86 19.954-27.117 19.954h-25.07c-11.77 0-20.977 9.213-20.977 20.978v41.96c0 11.765 9.721 20.978 20.977 20.978h25.074c11.764 0 24.047 9.208 27.116 19.952l14.326 35.306c5.632 10.237 3.07 25.583-5.113 33.26L535.8 889.86c-8.188 8.188-8.188 21.49 0 29.679l29.674 29.679c8.187 8.182 21.49 8.182 29.678 0l17.909-17.91c8.188-8.188 23.027-10.232 33.26-5.119l35.305 14.328c11.258 3.581 19.954 15.863 19.954 27.121v25.072c0 11.765 9.725 20.978 20.983 20.978h41.955c11.77 0 20.978-9.725 20.978-20.978v-23.54c0-11.77 9.212-24.047 19.958-27.116l35.305-14.328c10.232-5.63 25.07-3.069 33.255 5.115l17.914 17.909c8.183 8.188 21.49 8.188 29.674 0l29.678-29.674c8.188-8.188 8.188-21.49 0-29.68l-17.91-17.908c-8.187-8.187-10.231-23.026-5.117-33.26l14.328-35.305c3.581-11.257 15.863-19.958 27.121-19.958h25.072c11.77 0 20.978-9.208 20.978-20.978v-41.955c0.509-13.302-8.704-22.515-20.469-22.515z m-147.362 41.96c0 58.327-47.074 105.402-105.407 105.402-58.331 0-105.407-47.075-105.407-105.402 0-58.332 47.076-105.406 105.407-105.406 58.333 0 105.407 47.074 105.407 105.406z m0 0" p-id="6687"></path></svg>