<?xml version="1.0" standalone="no"?><!DOCTYPE svg PUBLIC "-//W3C//DTD SVG 1.1//EN" "http://www.w3.org/Graphics/SVG/1.1/DTD/svg11.dtd"><svg t="1577432982056" class="icon" viewBox="0 0 1024 1024" version="1.1" xmlns="http://www.w3.org/2000/svg" p-id="5151" xmlns:xlink="http://www.w3.org/1999/xlink" width="200" height="200"><defs><style type="text/css"></style></defs><path d="M588.3 584.1c-16.5-16.5-16.4-43.4-0.3-59.5l120.1-120.1c16.4-16.4 42.9-16.3 59.5 0.3 16.5 16.5 16.4 43.4 0.3 59.5L647.8 584.4c-16.3 16.4-42.9 16.4-59.5-0.3z m-295.8 77.3c-16.5-16.5-16.3-43.5-0.1-59.6l239.4-239.4c16.4-16.4 43-16.5 59.6 0.1 16.5 16.5 16.3 43.5 0.1 59.6L352.1 661.6c-16.4 16.4-43 16.4-59.6-0.2z" p-id="5152"></path></svg>