<?xml version="1.0" standalone="no"?><!DOCTYPE svg PUBLIC "-//W3C//DTD SVG 1.1//EN" "http://www.w3.org/Graphics/SVG/1.1/DTD/svg11.dtd"><svg t="1576201059692" class="icon" viewBox="0 0 1024 1024" version="1.1" xmlns="http://www.w3.org/2000/svg" p-id="3826" xmlns:xlink="http://www.w3.org/1999/xlink" width="200" height="200"><defs><style type="text/css"></style></defs><path d="M800 32H224c-35.2 0-64 28.8-64 64v832c0 35.2 28.8 64 64 64h576c35.2 0 64-28.8 64-64V96c0-35.2-28.8-64-64-64z m-288 864c-35.2 0-64-28.8-64-64s28.8-64 64-64 64 28.8 64 64-28.8 64-64 64z m256-224c0 16-16 32-32 32H288c-16 0-32-16-32-32V160c0-16 16-32 32-32h448c16 0 32 16 32 32v512z" p-id="3827" fill="#000000"></path></svg>